M48
; DRILL file {KiCad (5.1.5)-3} date 28-1-2020 11:01:43
; FORMAT={-:-/ absolute / metric / decimal}
; #@! TF.CreationDate,2020-01-28T11:01:43+01:00
; #@! TF.GenerationSoftware,Kicad,Pcbnew,(5.1.5)-3
; #@! TF.FileFunction,Plated,1,2,PTH
FMAT,2
METRIC
T1C0.400
T2C0.700
T3C0.800
T4C1.000
T5C1.200
T6C1.400
T7C1.500
T8C1.700
%
G90
G05
T1
X80.965Y-162.362
X81.046Y-167.803
X85.745Y-142.641
X85.908Y-147.655
X85.928Y-51.176
X85.928Y-56.215
X85.928Y-60.909
X85.928Y-71.344
X85.949Y-91.643
X85.949Y-96.677
X85.969Y-81.377
X85.969Y-86.512
X85.989Y-137.053
X86.004Y-167.884
X86.015Y-45.7
X86.04Y-112.034
X86.06Y-30.764
X86.06Y-35.367
X86.07Y-76.388
X86.076Y-127.025
X86.076Y-132.364
X86.101Y-40.919
X86.101Y-66.213
X86.142Y-116.87
X86.157Y-122.011
X90.856Y-137.058
X90.856Y-142.255
X90.856Y-147.65
X91.044Y-121.976
X91.054Y-132.263
X91.079Y-40.767
X91.079Y-50.963
X91.084Y-61.285
X91.095Y-76.479
X91.095Y-86.578
X91.11Y-25.568
X91.115Y-45.918
X91.12Y-35.712
X91.125Y-127.254
X91.14Y-101.844
X91.14Y-106.756
X91.156Y-66.147
X91.171Y-91.557
X91.206Y-111.978
X91.206Y-116.693
X91.211Y-81.387
X91.222Y-56.281
X91.222Y-71.217
X91.222Y-96.55
X91.247Y-30.663
X91.364Y-167.884
X95.545Y-171.547
X96.307Y-25.568
X100.345Y-123.759
X100.533Y-150.597
X100.655Y-69.245
X100.66Y-131.216
X100.686Y-138.267
X100.686Y-144.937
X100.716Y-158.328
X100.716Y-163.424
X100.802Y-75.468
X100.894Y-36.81
X100.914Y-100.945
X100.955Y-30.19
X101.27Y-61.864
X102.23Y-106.263
X104.872Y-25.832
X106.827Y-171.999
X107.081Y-146.766
X107.249Y-153.253
X107.285Y-139.512
X107.29Y-30.373
X107.29Y-41.001
X107.345Y-56.444
X107.345Y-66.213
X107.452Y-109.489
X107.452Y-128.326
X107.488Y-161.996
X107.493Y-82.154
X107.493Y-89.337
X107.544Y-97.434
X107.62Y-102.85
X108.001Y-73.665
X108.285Y-122.692
X116.561Y-171.999
X117.917Y-91.516
X118.156Y-148.814
X118.161Y-73.284
X118.222Y-122.474
X118.247Y-48.377
X126.751Y-171.999
X129.078Y-61.138
X129.129Y-43.876
X129.179Y-48.433
X129.271Y-29.51
X129.296Y-101.798
X129.316Y-53.838
X129.357Y-122.474
X129.383Y-97.16
X129.413Y-35.687
X129.428Y-116.683
X129.428Y-128.819
X129.459Y-73.061
X129.494Y-77.958
X129.494Y-83.84
X129.494Y-92.822
X129.494Y-158.14
X129.53Y-145.705
X129.555Y-152.715
X129.555Y-167.899
X129.596Y-106.787
X129.637Y-141.564
X129.774Y-134.153
X135.58Y-171.999
X135.895Y-48.743
X140.604Y-122.144
X140.757Y-72.68
X140.757Y-91.699
X140.899Y-148.961
X141.95Y-171.912
X142.403Y-48.9
X148.93Y-49.027
X151.75Y-72.908
X151.963Y-121.925
X151.983Y-126.975
X151.983Y-163.048
X151.983Y-167.452
X152.126Y-81.529
X152.126Y-117.033
X152.126Y-152.679
X152.126Y-157.795
X152.131Y-96.159
X152.222Y-91.608
X152.232Y-172.09
X152.268Y-76.845
X152.268Y-85.222
X152.268Y-101.839
X152.268Y-107.234
X152.349Y-145.476
X152.349Y-149.342
X152.41Y-141.605
X152.552Y-131.948
X155.616Y-48.951
X163.845Y-148.737
X163.876Y-171.999
X163.957Y-72.984
X163.972Y-121.818
X164.003Y-48.844
X164.048Y-91.882
X171.882Y-49.027
X172.913Y-171.999
X174.767Y-145.4
X174.788Y-92.065
X175.001Y-121.6
X177.658Y-73.04
X183.104Y-95.778
X183.109Y-145.857
X183.286Y-171.638
X184.064Y-121.27
X185.588Y-154.026
X185.862Y-54.386
X185.933Y-127.669
X185.938Y-79.238
X185.974Y-102.865
X188.488Y-29.942
X189.027Y-167.864
X189.073Y-43.729
X189.133Y-156.606
X189.184Y-117.643
X189.2Y-38.07
X189.205Y-163.683
X189.26Y-69.047
X189.296Y-94.122
X189.352Y-143.464
X189.474Y-150.79
X189.692Y-154.056
X190.094Y-76.662
X190.18Y-130.17
X190.226Y-51.43
X191.292Y-171.638
X192.862Y-23.465
X193.192Y-54.366
X193.335Y-102.946
X193.37Y-79.375
X195.753Y-171.455
X196.042Y-127.665
X196.291Y-103.266
X196.535Y-41.971
X196.535Y-49.479
X196.591Y-86.446
X196.591Y-97.409
X196.642Y-27.889
X196.642Y-34.463
X196.713Y-131.237
X196.743Y-55.113
X196.743Y-92.603
X196.743Y-116.784
X196.977Y-121.569
X196.977Y-136.073
X196.977Y-141.966
X197.043Y-110.774
X197.429Y-157.571
X199.507Y-77.059
X199.812Y-71.75
X199.954Y-66.477
X200.0Y-61.265
X202.514Y-127.183
X202.662Y-157.724
X202.697Y-81.153
X202.819Y-137.048
X202.839Y-86.655
X207.894Y-152.415
X211.765Y-171.547
X212.669Y-147.335
X212.695Y-137.048
X214.371Y-33.619
X214.371Y-61.138
X214.498Y-41.057
X214.498Y-53.624
X217.978Y-142.103
X218.049Y-137.048
X219.776Y-171.547
X221.686Y-22.763
X223.124Y-127.03
X223.21Y-137.175
X228.234Y-162.717
X228.244Y-152.547
X228.305Y-157.663
X230.774Y-50.825
X230.972Y-41.341
X230.972Y-45.684
X231.358Y-127.173
X231.369Y-30.866
X231.369Y-35.611
X231.394Y-58.318
X231.47Y-70.607
X231.551Y-64.425
X231.562Y-107.544
X231.633Y-100.046
X231.633Y-120.172
X231.831Y-84.785
X231.872Y-78.4
X231.897Y-92.283
X231.907Y-114.544
T2
X185.588Y-150.368
X185.588Y-157.988
X185.588Y-163.058
X185.588Y-168.148
X193.208Y-150.368
X193.208Y-157.988
X193.218Y-163.078
X193.218Y-168.158
X185.811Y-51.425
X185.811Y-59.045
X185.811Y-64.115
X185.811Y-69.205
X193.431Y-51.425
X193.431Y-59.045
X193.441Y-64.135
X193.441Y-69.215
X185.933Y-99.959
X185.933Y-107.579
X185.933Y-112.649
X185.933Y-117.739
X193.553Y-99.959
X193.553Y-107.579
X193.563Y-112.669
X193.563Y-117.749
X97.226Y-150.632
X97.226Y-158.252
X97.226Y-163.322
X97.226Y-168.412
X104.846Y-150.632
X104.846Y-158.252
X104.856Y-163.342
X104.856Y-168.422
X97.13Y-127.671
X97.13Y-135.291
X97.13Y-140.361
X97.13Y-145.451
X104.75Y-127.671
X104.75Y-135.291
X104.76Y-140.381
X104.76Y-145.461
X185.781Y-27.234
X185.781Y-34.854
X185.781Y-39.924
X185.781Y-45.014
X193.401Y-27.234
X193.401Y-34.854
X193.411Y-39.944
X193.411Y-45.024
X97.439Y-78.999
X97.439Y-86.619
X97.439Y-91.689
X97.439Y-96.779
X105.059Y-78.999
X105.059Y-86.619
X105.069Y-91.709
X105.069Y-96.789
X205.349Y-110.825
X205.349Y-118.445
X205.349Y-123.515
X205.349Y-128.605
X212.969Y-110.825
X212.969Y-118.445
X212.979Y-123.535
X212.979Y-128.615
X97.506Y-102.408
X97.506Y-110.028
X97.506Y-115.098
X97.506Y-120.188
X105.126Y-102.408
X105.126Y-110.028
X105.136Y-115.118
X105.136Y-120.198
X185.933Y-125.969
X185.933Y-133.589
X185.933Y-138.659
X185.933Y-143.749
X193.553Y-125.969
X193.553Y-133.589
X193.563Y-138.679
X193.563Y-143.759
X97.13Y-54.178
X97.13Y-61.798
X97.13Y-66.868
X97.13Y-71.958
X104.75Y-54.178
X104.75Y-61.798
X104.76Y-66.888
X104.76Y-71.968
X96.972Y-29.515
X96.972Y-37.135
X96.972Y-42.205
X96.972Y-47.295
X104.592Y-29.515
X104.592Y-37.135
X104.602Y-42.225
X104.602Y-47.305
X185.933Y-76.459
X185.933Y-84.079
X185.933Y-89.149
X185.933Y-94.239
X193.553Y-76.459
X193.553Y-84.079
X193.563Y-89.169
X193.563Y-94.249
T3
X206.278Y-77.363
X206.278Y-84.983
X208.818Y-77.363
X208.818Y-84.983
X211.358Y-77.363
X211.358Y-84.983
X213.898Y-77.363
X213.898Y-84.983
X216.438Y-77.363
X216.438Y-84.983
X218.978Y-77.363
X218.978Y-84.983
X221.518Y-77.363
X221.518Y-84.983
X224.058Y-77.363
X224.058Y-84.983
X206.085Y-93.756
X206.085Y-101.376
X208.625Y-93.756
X208.625Y-101.376
X211.165Y-93.756
X211.165Y-101.376
X213.705Y-93.756
X213.705Y-101.376
X216.245Y-93.756
X216.245Y-101.376
X218.785Y-93.756
X218.785Y-101.376
X221.325Y-93.756
X221.325Y-101.376
X223.865Y-93.756
X223.865Y-101.376
X226.405Y-93.756
X226.405Y-101.376
X200.182Y-51.267
X205.182Y-51.267
X218.897Y-51.267
X223.897Y-51.267
T4
X110.825Y-144.287
X115.825Y-144.287
X178.714Y-114.827
X178.714Y-119.827
X133.14Y-167.686
X138.14Y-167.686
X166.552Y-167.787
X171.552Y-167.787
X133.154Y-119.624
X138.154Y-119.624
X178.755Y-49.991
X178.755Y-54.991
X178.694Y-28.285
X178.694Y-33.285
X200.085Y-39.893
X205.085Y-39.893
X166.826Y-119.309
X171.826Y-119.309
X178.689Y-77.658
X178.689Y-82.658
X178.557Y-90.255
X178.557Y-95.255
X132.978Y-70.754
X137.978Y-70.754
X156.129Y-70.785
X161.129Y-70.785
X218.769Y-39.721
X223.769Y-39.721
X201.435Y-27.963
X203.975Y-27.963
X206.515Y-27.963
X209.055Y-27.963
X211.595Y-27.963
X214.135Y-27.963
X216.675Y-27.963
X156.159Y-167.833
X161.159Y-167.833
X143.697Y-144.668
X148.697Y-144.668
X110.54Y-119.248
X115.54Y-119.248
X178.887Y-38.983
X178.887Y-43.983
X166.846Y-70.785
X171.846Y-70.785
X120.796Y-45.781
X125.796Y-45.781
X132.78Y-45.776
X137.78Y-45.776
X156.129Y-94.879
X161.129Y-94.879
X133.237Y-144.668
X138.237Y-144.668
X166.785Y-94.991
X171.785Y-94.991
X133.074Y-95.301
X138.074Y-95.301
X166.785Y-45.522
X171.785Y-45.522
X156.215Y-143.835
X161.215Y-143.835
X143.509Y-167.686
X148.509Y-167.686
X178.623Y-126.883
X178.623Y-131.883
X156.271Y-119.309
X161.271Y-119.309
X166.562Y-143.815
X171.562Y-143.815
X178.755Y-60.989
X178.755Y-65.989
X143.123Y-70.78
X148.123Y-70.78
X155.946Y-45.415
X160.946Y-45.415
X110.49Y-45.766
X115.49Y-45.766
X110.896Y-168.107
X115.896Y-168.107
X121.116Y-168.163
X126.116Y-168.163
X178.638Y-101.224
X178.638Y-106.224
X178.445Y-163.336
X178.445Y-168.336
X178.714Y-150.094
X178.714Y-155.094
X120.999Y-70.866
X125.999Y-70.866
X120.969Y-95.316
X125.969Y-95.316
X110.581Y-70.815
X115.581Y-70.815
X143.336Y-119.527
X148.336Y-119.527
X120.933Y-119.304
X125.933Y-119.304
X121.263Y-144.297
X126.263Y-144.297
X178.679Y-139.14
X178.679Y-144.14
X143.377Y-95.301
X148.377Y-95.301
X110.383Y-95.275
X115.383Y-95.275
X143.041Y-45.735
X148.041Y-45.735
T5
X132.654Y-127.45
X132.654Y-137.45
X148.654Y-127.45
X148.654Y-137.45
X155.941Y-78.341
X155.941Y-88.341
X171.941Y-78.341
X171.941Y-88.341
X132.812Y-150.794
X132.812Y-160.794
X148.812Y-150.794
X148.812Y-160.794
X132.654Y-53.558
X132.654Y-63.558
X148.654Y-53.558
X148.654Y-63.558
X155.941Y-28.631
X155.941Y-38.631
X171.941Y-28.631
X171.941Y-38.631
X110.5Y-150.728
X110.5Y-160.728
X126.5Y-150.728
X126.5Y-160.728
X155.941Y-127.231
X155.941Y-137.231
X171.941Y-127.231
X171.941Y-137.231
X110.343Y-101.934
X110.343Y-111.934
X126.343Y-101.934
X126.343Y-111.934
X110.343Y-127.384
X110.343Y-137.384
X126.343Y-127.384
X126.343Y-137.384
X110.343Y-77.934
X110.343Y-87.934
X126.343Y-77.934
X126.343Y-87.934
X132.654Y-28.631
X132.654Y-38.631
X148.654Y-28.631
X148.654Y-38.631
X132.654Y-78.341
X132.654Y-88.341
X148.654Y-78.341
X148.654Y-88.341
X155.941Y-101.821
X155.941Y-111.821
X171.941Y-101.821
X171.941Y-111.821
X156.063Y-150.452
X156.063Y-160.452
X172.063Y-150.452
X172.063Y-160.452
X132.654Y-102.0
X132.654Y-112.0
X148.654Y-102.0
X148.654Y-112.0
X110.343Y-28.565
X110.343Y-38.565
X126.343Y-28.565
X126.343Y-38.565
X155.941Y-53.558
X155.941Y-63.558
X171.941Y-53.558
X171.941Y-63.558
X110.343Y-53.492
X110.343Y-63.492
X126.343Y-53.492
X126.343Y-63.492
T6
X225.862Y-145.826
X225.862Y-150.826
T7
X202.204Y-165.684
X85.689Y-155.951
T8
X199.664Y-163.144
X199.664Y-168.224
X204.744Y-163.144
X204.744Y-168.224
X83.149Y-153.411
X83.149Y-158.491
X88.229Y-153.411
X88.229Y-158.491
T0
M30
